<svg xmlns="http://www.w3.org/2000/svg" xmlns:xlink="http://www.w3.org/1999/xlink" version="1.1" viewBox="0 0 60 60" x="0px" y="0px"><defs><path id="b" d="M5,2h-4h-4.37114e-08c-0.552285,-2.41411e-08 -1,-0.447715 -1,-1c2.41411e-08,-0.552285 0.447715,-1 1,-1h4h-4.37114e-08c0.552285,-2.41411e-08 1,0.447715 1,1c2.41411e-08,0.552285 -0.447715,1 -1,1Z"/><path id="a" d="M4,2h-3h-4.37114e-08c-0.552285,-2.41411e-08 -1,-0.447715 -1,-1c2.41411e-08,-0.552285 0.447715,-1 1,-1h3h-4.37114e-08c0.552285,-2.41411e-08 1,0.447715 1,1c2.41411e-08,0.552285 -0.447715,1 -1,1Z"/><path id="c" d="M1,4l4.07564e-10,-2.34479e-13c-0.551964,0.000320418 -0.99968,-0.446875 -1,-0.99884c-2.24527e-07,-0.000386779 -2.24527e-07,-0.000773558 -4.72511e-13,-0.00116034v-2l1.06581e-14,1.50996e-07c-8.33927e-08,-0.552285 0.447715,-1 1,-1c0.552285,-8.33927e-08 1,0.447715 1,1c0,0 0,7.10543e-15 0,7.10543e-15v2l-1.02272e-08,-1.73537e-05c0.000330086,0.551964 -0.446858,0.999687 -0.998822,1.00002c-0.000386829,2.31332e-07 -0.000773659,2.38078e-07 -0.00116049,2.02381e-08Z"/></defs><g fill="#000000"><path d="M1,22l4.07567e-10,-2.34479e-13c-0.551964,0.000320418 -0.99968,-0.446875 -1,-0.99884c-2.24527e-07,-0.000386779 -2.24527e-07,-0.000773558 -4.68958e-13,-0.00116034v-18l1.06861e-09,-9.78845e-07c0.00180825,-1.6561 1.3439,-2.99819 3,-3h48l3.60664e-08,3.93712e-11c1.6561,0.00180773 2.99819,1.3439 3,3v13v0c0,0.552285 -0.447715,1 -1,1c-0.552285,0 -1,-0.447715 -1,-1v-13l-7.69468e-09,-1.12344e-05c-0.000381264,-0.552129 -0.447882,-0.99962 -1.00001,-0.999989h-48l9.00532e-09,-6.11777e-12c-0.552129,0.000375061 -0.999625,0.447871 -1,1v18l-1.03149e-08,-1.75047e-05c0.000330086,0.551964 -0.446858,0.999687 -0.998822,1.00002c-0.000386779,2.31302e-07 -0.000773558,2.38076e-07 -0.00116034,2.03231e-08Z" transform="translate(3, -1.06829e-09)"/><use transform="translate(28, 54)" xlink:href="#b"/><path d="M14,22h-11l5.93973e-08,6.48299e-11c-1.6561,-0.00180768 -2.99819,-1.3439 -3,-3v-18l1.24345e-14,-1.29922e-07c8.33927e-08,-0.552285 0.447715,-1 1,-1c0.552285,8.33927e-08 1,0.447715 1,1v18l7.74802e-09,1.13116e-05c0.000381307,0.552129 0.447882,0.99962 1.00001,0.999989h11h-4.37114e-08c0.552285,-2.41411e-08 1,0.447715 1,1c2.41411e-08,0.552285 -0.447715,1 -1,1Z" transform="translate(3, 34)"/><path d="M12,28h-11h-4.37114e-08c-0.552285,-2.41411e-08 -1,-0.447715 -1,-1c2.41411e-08,-0.552285 0.447715,-1 1,-1h11l2.28079e-08,-1.54898e-11c0.552129,-0.000375078 0.999625,-0.447871 1,-1v-24l1.42109e-14,1.50996e-07c-8.33927e-08,-0.552285 0.447715,-1 1,-1c0.552285,-8.33927e-08 1,0.447715 1,1c0,0 0,0 0,0v24l-9.39181e-10,8.60306e-07c-0.00180819,1.6561 -1.3439,2.99819 -3,3Z" transform="translate(42, 28)"/><path d="M3,6l-1.31134e-07,-3.55271e-15c-1.65685,-7.24234e-08 -3,-1.34315 -3,-3c7.24234e-08,-1.65685 1.34315,-3 3,-3c1.65685,7.24234e-08 3,1.34315 3,3l-7.96044e-10,7.29171e-07c-0.00180819,1.6561 -1.3439,2.99819 -3,3Zm0,-4l-4.37114e-08,8.88178e-16c-0.552285,2.41411e-08 -1,0.447715 -1,1c2.41411e-08,0.552285 0.447715,1 1,1c0.552285,-2.41411e-08 1,-0.447715 1,-1l-7.66498e-09,-1.11907e-05c-0.000381264,-0.552129 -0.447882,-0.99962 -1.00001,-0.999989Z" transform="translate(7, 4)"/><path d="M3,6l-1.31134e-07,-3.55271e-15c-1.65685,-7.24234e-08 -3,-1.34315 -3,-3c7.24234e-08,-1.65685 1.34315,-3 3,-3c1.65685,7.24234e-08 3,1.34315 3,3l-7.96042e-10,7.29171e-07c-0.00180819,1.6561 -1.3439,2.99819 -3,3Zm0,-4l-4.37114e-08,8.88178e-16c-0.552285,2.41411e-08 -1,0.447715 -1,1c2.41411e-08,0.552285 0.447715,1 1,1c0.552285,-2.41411e-08 1,-0.447715 1,-1l-7.66499e-09,-1.11907e-05c-0.000381264,-0.552129 -0.447882,-0.99962 -1.00001,-0.999989Z" transform="translate(47, 4)"/><path d="M3,6h-1.31134e-07c-1.65685,-7.24234e-08 -3,-1.34315 -3,-3c7.24234e-08,-1.65685 1.34315,-3 3,-3c1.65685,7.24234e-08 3,1.34315 3,3l-7.96044e-10,7.29171e-07c-0.00180819,1.6561 -1.3439,2.99819 -3,3Zm0,-4h-4.37114e-08c-0.552285,2.41411e-08 -1,0.447715 -1,1c2.41411e-08,0.552285 0.447715,1 1,1c0.552285,-2.41411e-08 1,-0.447715 1,-1l-7.66498e-09,-1.11907e-05c-0.000381264,-0.552129 -0.447882,-0.99962 -1.00001,-0.999989Z" transform="translate(7, 46)"/><path d="M3,6h-1.31134e-07c-1.65685,-7.24234e-08 -3,-1.34315 -3,-3c7.24234e-08,-1.65685 1.34315,-3 3,-3c1.65685,7.24234e-08 3,1.34315 3,3l-7.96042e-10,7.29171e-07c-0.00180819,1.6561 -1.3439,2.99819 -3,3Zm0,-4h-4.37114e-08c-0.552285,2.41411e-08 -1,0.447715 -1,1c2.41411e-08,0.552285 0.447715,1 1,1c0.552285,-2.41411e-08 1,-0.447715 1,-1l-7.66499e-09,-1.11907e-05c-0.000381264,-0.552129 -0.447882,-0.99962 -1.00001,-0.999989Z" transform="translate(47, 46)"/><path d="M14,15h-12l9.24672e-08,1.20433e-10c-1.10397,-0.00143782 -1.99856,-0.896027 -2,-2v-11l-2.74023e-08,2.11245e-05c0.00142623,-1.10397 0.896006,-1.99857 1.99998,-2.00002h12l-2.88113e-08,-3.75273e-11c1.10397,0.00143786 1.99856,0.896027 2,2v11l2.74851e-08,-2.11887e-05c-0.00142619,1.10397 -0.896005,1.99857 -1.99998,2.00002Zm-12,-13v11h12.002l-0.002,-11Z" transform="translate(44, 15)"/><path d="M11,14h-10l4.07567e-10,-2.34479e-13c-0.551964,0.000320418 -0.99968,-0.446875 -1,-0.99884c-2.24527e-07,-0.000386779 -2.24527e-07,-0.000773558 -4.68958e-13,-0.00116034v-11l-2.74023e-08,2.11245e-05c0.00142623,-1.10397 0.896006,-1.99857 1.99998,-2.00002h8l-2.88113e-08,-3.75238e-11c1.10397,0.00143786 1.99856,0.896027 2,2v11l-1.03219e-08,-1.75167e-05c0.000330086,0.551964 -0.446858,0.999687 -0.998822,1.00002c-0.000379733,2.27088e-07 -0.000759467,2.37755e-07 -0.0011392,3.19993e-08Zm-9,-2h8v-10h-8Z" transform="translate(32, 38)"/><path d="M9.00033,10.0003h-6l5.93973e-08,6.48299e-11c-1.6561,-0.00180768 -2.99819,-1.3439 -3,-3v-6l1.03656e-08,1.75895e-05c-0.000330133,-0.551964 0.446858,-0.999687 0.998822,-1.00002c0.000386779,-2.31334e-07 0.000773558,-2.38142e-07 0.00116034,-2.04215e-08h10l3.13605e-08,-1.82041e-11c0.551964,-0.000320401 0.99968,0.446875 1,0.99884c2.24515e-07,0.000386779 2.24503e-07,0.000773558 -3.64082e-11,0.00116034v6l-9.15932e-10,8.39001e-07c-0.00180819,1.6561 -1.3439,2.99819 -3,3Zm-7,-8v5l7.74802e-09,1.13116e-05c0.000381307,0.552129 0.447882,0.99962 1.00001,0.999989h6l2.28079e-08,-1.54898e-11c0.552129,-0.000375078 0.999625,-0.447871 1,-1v-5Z" transform="translate(31.9997, 49.9997)"/><path d="M12,14h-10l9.24672e-08,1.2043e-10c-1.10397,-0.00143782 -1.99856,-0.896027 -2,-2v-10l-2.74023e-08,2.11245e-05c0.00142623,-1.10397 0.896006,-1.99857 1.99998,-2.00002h10l-2.88113e-08,-3.75238e-11c1.10397,0.00143786 1.99856,0.896027 2,2v10l2.74851e-08,-2.11887e-05c-0.00142619,1.10397 -0.896005,1.99857 -1.99998,2.00002Zm-10,-12v10h10.002l-0.002,-10Z" transform="translate(16, 45)"/><path d="M14,16h-12l9.24672e-08,1.2043e-10c-1.10397,-0.00143782 -1.99856,-0.896027 -2,-2v-12l-2.74023e-08,2.11245e-05c0.00142623,-1.10397 0.896006,-1.99857 1.99998,-2.00002h12l-2.88113e-08,-3.75273e-11c1.10397,0.00143786 1.99856,0.896027 2,2v12l2.74851e-08,-2.11887e-05c-0.00142619,1.10397 -0.896005,1.99857 -1.99998,2.00002Zm-12,-14v12h12.002l-0.002,-12Z" transform="translate(22, 20)"/><path d="M1.00209,2.04583l2.94439e-09,3.6259e-11c-0.130643,-0.00160881 -0.259704,-0.0288152 -0.37988,-0.08008l-4.86484e-09,-2.02851e-09c-0.121247,-0.0505568 -0.23291,-0.121562 -0.33012,-0.20992l-1.88532e-07,-2.14016e-07c-0.0878763,-0.0997545 -0.162094,-0.210754 -0.2207,-0.33008l-3.48702e-08,-8.80885e-08c-0.0478413,-0.120856 -0.0713902,-0.249957 -0.0693001,-0.37992l-8.65238e-09,6.61477e-07c0.00346375,-0.264812 0.107078,-0.518488 0.29,-0.71l-2.68406e-08,2.66572e-08c0.236006,-0.234394 0.573262,-0.335828 0.89941,-0.27051l1.01312e-08,1.49233e-09c0.0663293,0.00977029 0.130638,0.0302183 0.19043,0.06055l-8.2661e-10,-2.64528e-10c0.0614995,0.0196807 0.119028,0.050097 0.16992,0.08984l1.04978e-07,6.30506e-08c0.0573764,0.0344609 0.11107,0.074711 0.16024,0.120119l1.50703e-08,1.5832e-08c0.182536,0.191762 0.286085,0.44528 0.29,0.71l-2.13092e-09,1.7304e-07c-0.00160883,0.130643 -0.0288153,0.259704 -0.0800801,0.37988l4.35184e-08,-1.0372e-07c-0.0508176,0.121117 -0.121826,0.232729 -0.21,0.33008l-1.67448e-08,1.51663e-08c-0.0973508,0.0881737 -0.208963,0.159182 -0.33008,0.21l-6.10529e-08,2.60365e-08c-0.120166,0.051246 -0.249213,0.0784387 -0.37984,0.0800401Z" transform="translate(14.9979, 3.95417)"/><path d="M1.00209,2.02077l2.94439e-09,3.62572e-11c-0.130643,-0.00160881 -0.259704,-0.0288152 -0.37988,-0.08008l-4.86485e-09,-2.02851e-09c-0.121247,-0.0505568 -0.23291,-0.121562 -0.33012,-0.20992l-1.88532e-07,-2.14016e-07c-0.0878763,-0.0997545 -0.162094,-0.210754 -0.2207,-0.33008l-3.48702e-08,-8.80885e-08c-0.0478413,-0.120856 -0.0713902,-0.249957 -0.0693001,-0.37992l3.23974e-09,-5.99491e-07c0.00143337,-0.26522 0.105343,-0.519618 0.29,-0.71l-7.74871e-08,7.04637e-08c0.0971917,-0.0883823 0.208841,-0.159415 0.33008,-0.21l5.04871e-08,-2.24863e-08c0.178682,-0.0795826 0.377916,-0.100771 0.56934,-0.06055l1.01312e-08,1.49233e-09c0.0663293,0.00977029 0.130638,0.0302183 0.19043,0.06055l-3.25474e-08,-1.10291e-08c0.0637214,0.0215928 0.124181,0.051821 0.17969,0.0898399l1.60619e-08,1.13313e-08c0.052493,0.0370326 0.102735,0.0771571 0.15046,0.120161l0.12012,0.14941l1.9932e-08,2.96769e-08c0.037657,0.0560677 0.0678572,0.116798 0.08984,0.18066l-6.39693e-09,-1.24647e-08c0.0289832,0.0564752 0.0490764,0.117085 0.05957,0.17969l1.63613e-08,8.91526e-08c0.0121301,0.0660971 0.0189751,0.133056 0.02047,0.20024l-2.13092e-09,1.7304e-07c-0.00160883,0.130643 -0.0288153,0.259704 -0.0800801,0.37988l2.43427e-08,-6.71639e-08c-0.0910307,0.251162 -0.288838,0.448969 -0.54,0.54l-4.88092e-08,2.0827e-08c-0.120185,0.0512835 -0.24926,0.0785036 -0.37992,0.0801198Z" transform="translate(14.9979, 7.97923)"/><path d="M1,2.04583l2.94439e-09,3.6259e-11c-0.130643,-0.00160881 -0.259704,-0.0288152 -0.37988,-0.08008l-4.86484e-09,-2.02851e-09c-0.121247,-0.0505568 -0.23291,-0.121562 -0.33012,-0.20992l-9.56605e-08,-1.05617e-07c-0.0881737,-0.0973508 -0.159182,-0.208963 -0.21,-0.33008l2.5978e-08,6.09337e-08c-0.0512425,-0.120194 -0.0784219,-0.249268 -0.0800002,-0.37992l-8.65237e-09,6.61477e-07c0.00346375,-0.264812 0.107078,-0.518488 0.29,-0.71l-2.68406e-08,2.66572e-08c0.236006,-0.234394 0.573262,-0.335828 0.89941,-0.27051l1.01312e-08,1.49233e-09c0.0663293,0.00977029 0.130638,0.0302183 0.19043,0.06055l-3.25474e-08,-1.10291e-08c0.0637214,0.0215928 0.124181,0.051821 0.17969,0.0898399l-8.7158e-08,-6.14623e-08c0.0524956,0.037019 0.102741,0.0771298 0.150471,0.12012l2.09337e-08,2.19918e-08c0.182536,0.191762 0.286085,0.44528 0.29,0.71l-2.13092e-09,1.7304e-07c-0.00160883,0.130643 -0.0288153,0.259704 -0.0800801,0.37988l4.35184e-08,-1.0372e-07c-0.0508176,0.121117 -0.121826,0.232729 -0.21,0.33008l-1.67448e-08,1.51663e-08c-0.0973508,0.0881737 -0.208963,0.159182 -0.33008,0.21l-4.05195e-08,1.72799e-08c-0.120166,0.051246 -0.249213,0.0784387 -0.37984,0.0800401Z" transform="translate(19, 3.95417)"/><path d="M1,2.08012l2.94439e-09,3.62572e-11c-0.130643,-0.00160881 -0.259704,-0.0288152 -0.37988,-0.08008l-4.86485e-09,-2.02851e-09c-0.121247,-0.0505568 -0.23291,-0.121562 -0.33012,-0.20992l-9.56605e-08,-1.05617e-07c-0.0881737,-0.0973508 -0.159182,-0.208963 -0.21,-0.33008l2.5978e-08,6.09337e-08c-0.0512425,-0.120194 -0.0784219,-0.249268 -0.0800002,-0.37992l-9.2823e-09,3.7432e-07c0.00166436,-0.0671175 0.00819144,-0.134026 0.0195299,-0.2002l-2.57419e-08,1.42457e-07c0.0112996,-0.0625323 0.0316995,-0.123072 0.06055,-0.17969l-9.39596e-09,2.78833e-08c0.021577,-0.0640314 0.0518033,-0.124814 0.08984,-0.18066l-1.42168e-07,2.00286e-07c0.0370226,-0.0521575 0.0771202,-0.102063 0.12008,-0.14945l3.35778e-08,-3.09963e-08c0.400948,-0.370123 1.01897,-0.370123 1.41992,6.19926e-08l3.59255e-08,3.96051e-08c0.042972,0.0473733 0.0830831,0.0972651 0.12012,0.14941l1.9932e-08,2.96769e-08c0.037657,0.0560677 0.0678572,0.116798 0.08984,0.18066l-6.39693e-09,-1.24647e-08c0.0289832,0.0564752 0.0490764,0.117085 0.05957,0.17969l-1.52425e-08,-8.28685e-08c0.0121572,0.0660947 0.0190291,0.133053 0.0205506,0.200239l-2.13092e-09,1.7304e-07c-0.00160883,0.130643 -0.0288153,0.259704 -0.0800801,0.37988l2.43427e-08,-6.71639e-08c-0.0910307,0.251162 -0.288838,0.448969 -0.54,0.54l-3.25713e-08,1.38983e-08c-0.120185,0.0512836 -0.24926,0.0785037 -0.37992,0.0801199Z" transform="translate(19, 7.91988)"/><path d="M1.00209,2l2.94439e-09,3.6259e-11c-0.130643,-0.00160881 -0.259704,-0.0288152 -0.37988,-0.08008l-4.86484e-09,-2.02851e-09c-0.121247,-0.0505568 -0.23291,-0.121562 -0.33012,-0.20992l-3.24174e-08,-3.46103e-08c-0.0910852,-0.0972467 -0.165638,-0.208748 -0.2207,-0.33008l-8.32485e-08,-2.10301e-07c-0.0478412,-0.120856 -0.0713901,-0.249956 -0.0693,-0.37992l1.06581e-14,1.50996e-07c-8.33927e-08,-0.552285 0.447715,-1 1,-1c0.552285,-8.33927e-08 1,0.447715 1,1c0,0 0,8.88178e-16 0,8.88178e-16l-2.13092e-09,1.7304e-07c-0.00160883,0.130643 -0.0288153,0.259704 -0.0800801,0.37988l4.35184e-08,-1.0372e-07c-0.0508176,0.121117 -0.121826,0.232729 -0.21,0.33008l1.36164e-08,-1.35813e-08c-0.188284,0.187799 -0.443999,0.292272 -0.70992,0.29004Z" transform="translate(22.9979, 4)"/><path d="M1,2.08012l2.94439e-09,3.62572e-11c-0.130643,-0.00160881 -0.259704,-0.0288152 -0.37988,-0.08008l-4.86485e-09,-2.02851e-09c-0.121247,-0.0505568 -0.23291,-0.121562 -0.33012,-0.20992l-9.56605e-08,-1.05617e-07c-0.0881737,-0.0973508 -0.159182,-0.208963 -0.21,-0.33008l2.5978e-08,6.09337e-08c-0.0512425,-0.120194 -0.0784219,-0.249268 -0.0800002,-0.37992l3.23974e-09,-5.99491e-07c0.00143337,-0.26522 0.105343,-0.519618 0.29,-0.71l3.35778e-08,-3.09963e-08c0.400948,-0.370123 1.01897,-0.370123 1.41992,6.19926e-08l-9.92091e-09,-1.0261e-08c0.184302,0.190621 0.288174,0.444859 0.29008,0.71l-2.13092e-09,1.7304e-07c-0.00160883,0.130643 -0.0288153,0.259704 -0.0800801,0.37988l2.43427e-08,-6.71639e-08c-0.0910307,0.251162 -0.288838,0.448969 -0.54,0.54l2.675e-08,-1.14143e-08c-0.120185,0.0512836 -0.24926,0.0785037 -0.37992,0.0801199Z" transform="translate(23, 7.91988)"/><path d="M1.00209,2.04583l2.94439e-09,3.6259e-11c-0.130643,-0.00160881 -0.259704,-0.0288152 -0.37988,-0.08008l-4.86484e-09,-2.02851e-09c-0.121247,-0.0505568 -0.23291,-0.121562 -0.33012,-0.20992l-1.88532e-07,-2.14016e-07c-0.0878763,-0.0997545 -0.162094,-0.210754 -0.2207,-0.33008l-3.48702e-08,-8.80885e-08c-0.0478413,-0.120856 -0.0713902,-0.249957 -0.0693001,-0.37992l-8.65237e-09,6.61477e-07c0.00346375,-0.264812 0.107078,-0.518488 0.29,-0.71l-2.68406e-08,2.66572e-08c0.236006,-0.234394 0.573262,-0.335828 0.89941,-0.27051l1.01312e-08,1.49233e-09c0.0663293,0.00977029 0.130638,0.0302183 0.19043,0.06055l-3.25474e-08,-1.10291e-08c0.0637214,0.0215928 0.124181,0.051821 0.17969,0.0898399l-4.63506e-08,-3.26857e-08c0.0524956,0.0370191 0.102741,0.0771299 0.150471,0.12012l-1.6252e-08,-1.70735e-08c0.182536,0.191762 0.286085,0.44528 0.29,0.71l-2.13092e-09,1.7304e-07c-0.00160883,0.130643 -0.0288153,0.259704 -0.0800801,0.37988l4.35184e-08,-1.0372e-07c-0.0508176,0.121117 -0.121826,0.232729 -0.21,0.33008l1.41831e-08,-1.41465e-08c-0.188284,0.187799 -0.443999,0.292272 -0.70992,0.29004Z" transform="translate(26.9979, 3.95417)"/><path d="M1.00209,2.02077l2.94439e-09,3.62572e-11c-0.130643,-0.00160881 -0.259704,-0.0288152 -0.37988,-0.08008l-4.86485e-09,-2.02851e-09c-0.121247,-0.0505568 -0.23291,-0.121562 -0.33012,-0.20992l-1.88532e-07,-2.14016e-07c-0.0878763,-0.0997545 -0.162094,-0.210754 -0.2207,-0.33008l-3.48702e-08,-8.80885e-08c-0.0478413,-0.120856 -0.0713902,-0.249957 -0.0693001,-0.37992l3.23974e-09,-5.99491e-07c0.00143337,-0.26522 0.105343,-0.519618 0.29,-0.71l-7.74871e-08,7.04637e-08c0.0971917,-0.0883823 0.208841,-0.159415 0.33008,-0.21l5.04871e-08,-2.24863e-08c0.178682,-0.0795826 0.377916,-0.100771 0.56934,-0.06055l1.01312e-08,1.49233e-09c0.0663293,0.00977029 0.130638,0.0302183 0.19043,0.06055l-3.25474e-08,-1.10291e-08c0.0637214,0.0215928 0.124181,0.051821 0.17969,0.0898399l1.60619e-08,1.13313e-08c0.052493,0.0370326 0.102735,0.0771571 0.15046,0.120161l0.12012,0.14941l1.9932e-08,2.96769e-08c0.037657,0.0560677 0.0678572,0.116798 0.08984,0.18066l-6.39693e-09,-1.24647e-08c0.0289832,0.0564752 0.0490764,0.117085 0.05957,0.17969l1.63612e-08,8.91523e-08c0.0121301,0.0660971 0.0189751,0.133056 0.02047,0.20024l-2.13092e-09,1.7304e-07c-0.00160883,0.130643 -0.0288153,0.259704 -0.0800801,0.37988l2.43427e-08,-6.71639e-08c-0.0910307,0.251162 -0.288838,0.448969 -0.54,0.54l-4.88099e-08,2.08274e-08c-0.120185,0.0512835 -0.24926,0.0785036 -0.37992,0.0801198Z" transform="translate(26.9979, 7.97923)"/><path d="M1,2.10474l3.88344e-08,-3.84585e-10c-0.266014,0.0026344 -0.521899,-0.101882 -0.71,-0.29l-9.56605e-08,-1.05617e-07c-0.0881737,-0.0973508 -0.159182,-0.208963 -0.21,-0.33008l-9.00508e-08,-2.11222e-07c-0.0512424,-0.120194 -0.0784217,-0.249268 -0.08,-0.37992l3.23974e-09,-5.99491e-07c0.00143337,-0.26522 0.105343,-0.519618 0.29,-0.71l8.92003e-09,-8.9939e-09c0.388911,-0.392131 1.02207,-0.394742 1.4142,-0.00583143c0.190755,0.189188 0.29736,0.447174 0.295798,0.715832l-2.13092e-09,1.7304e-07c-0.00160883,0.130643 -0.0288153,0.259704 -0.0800801,0.37988l4.35184e-08,-1.0372e-07c-0.0508176,0.121117 -0.121826,0.232729 -0.21,0.33008l-1.51176e-08,1.50786e-08c-0.188284,0.187799 -0.443999,0.292272 -0.70992,0.29004Z" transform="translate(31, 3.89526)"/><path d="M1,2.04744l2.94439e-09,3.62572e-11c-0.130643,-0.00160881 -0.259704,-0.0288152 -0.37988,-0.08008l-4.86486e-09,-2.02852e-09c-0.121247,-0.0505568 -0.23291,-0.121562 -0.33012,-0.20992l-9.56605e-08,-1.05617e-07c-0.0881737,-0.0973508 -0.159182,-0.208963 -0.21,-0.33008l2.5978e-08,6.09337e-08c-0.0512425,-0.120194 -0.0784219,-0.249268 -0.0800002,-0.37992l-9.2823e-09,3.7432e-07c0.00166436,-0.0671175 0.00819144,-0.134026 0.0195299,-0.2002l-2.57419e-08,1.42457e-07c0.0112996,-0.0625323 0.0316995,-0.123072 0.06055,-0.17969l-9.39596e-09,2.78833e-08c0.021577,-0.0640314 0.0518033,-0.124814 0.08984,-0.18066l-1.42168e-07,2.00286e-07c0.0370226,-0.0521575 0.0771202,-0.102063 0.12008,-0.14945l6.99482e-08,-6.89485e-08c0.239455,-0.236033 0.58066,-0.337443 0.91016,-0.27051l2.31258e-08,4.23682e-09c0.0624937,0.0114493 0.123012,0.0318421 0.17969,0.06055l-3.25474e-08,-1.10291e-08c0.0637214,0.0215928 0.124181,0.051821 0.17969,0.0898399l-3.42127e-08,-2.31668e-08c0.0512127,0.0346782 0.098392,0.0749677 0.140661,0.120119l2.494e-08,2.392e-08c0.293721,0.281708 0.381348,0.716328 0.21973,1.08984l4.38916e-09,-1.06792e-08c-0.0507465,0.123471 -0.125424,0.235679 -0.21973,0.33016l2.14102e-08,-2.05591e-08c-0.188688,0.181187 -0.438659,0.284717 -0.7002,0.29Z" transform="translate(31, 7.95256)"/><path d="M1.00321,2.00736l3.88344e-08,-3.84585e-10c-0.266014,0.0026344 -0.521899,-0.101882 -0.71,-0.29l-3.24174e-08,-3.46103e-08c-0.0910852,-0.0972467 -0.165638,-0.208748 -0.2207,-0.33008l-1.55152e-08,-3.91942e-08c-0.0478412,-0.120856 -0.0713901,-0.249956 -0.0693,-0.37992l-4.14974e-08,-7.14007e-06c-0.0032078,-0.552275 0.441899,-1.00258 0.994175,-1.00579c0.268658,-0.00156045 0.526644,0.105047 0.71583,0.295804l6.44377e-10,6.66629e-10c0.18427,0.190633 0.288111,0.444867 0.289995,0.709995l-2.13092e-09,1.7304e-07c-0.00160883,0.130643 -0.0288153,0.259704 -0.0800801,0.37988l4.35184e-08,-1.0372e-07c-0.0508176,0.121117 -0.121826,0.232729 -0.21,0.33008l-1.67448e-08,1.51663e-08c-0.0973508,0.0881737 -0.208963,0.159182 -0.33008,0.21l-4.82487e-08,2.05761e-08c-0.120166,0.051246 -0.249213,0.0784388 -0.37984,0.0800402Z" transform="translate(34.9968, 3.99264)"/><path d="M1,2.08012l2.94439e-09,3.62572e-11c-0.130643,-0.00160881 -0.259704,-0.0288152 -0.37988,-0.08008l-4.86485e-09,-2.02852e-09c-0.121247,-0.0505568 -0.23291,-0.121562 -0.33012,-0.20992l-9.56605e-08,-1.05617e-07c-0.0881737,-0.0973508 -0.159182,-0.208963 -0.21,-0.33008l2.5978e-08,6.09337e-08c-0.0512425,-0.120194 -0.0784219,-0.249268 -0.0800002,-0.37992l3.23973e-09,-5.99491e-07c0.00143337,-0.26522 0.105343,-0.519618 0.29,-0.71l3.35778e-08,-3.09963e-08c0.400948,-0.370123 1.01897,-0.370123 1.41992,6.19926e-08l-9.92089e-09,-1.0261e-08c0.184302,0.190621 0.288174,0.444859 0.29008,0.71l-2.13092e-09,1.7304e-07c-0.00160883,0.130643 -0.0288153,0.259704 -0.0800801,0.37988l2.43427e-08,-6.71639e-08c-0.0910307,0.251162 -0.288838,0.448969 -0.54,0.54l2.675e-08,-1.14143e-08c-0.120185,0.0512836 -0.24926,0.0785037 -0.37992,0.0801199Z" transform="translate(35, 7.91988)"/><path d="M1,2l3.88344e-08,-3.84585e-10c-0.266014,0.0026344 -0.521899,-0.101882 -0.71,-0.29l-9.56605e-08,-1.05617e-07c-0.0881737,-0.0973508 -0.159182,-0.208963 -0.21,-0.33008l-9.00508e-08,-2.11222e-07c-0.0512424,-0.120194 -0.0784217,-0.249268 -0.08,-0.37992l1.42109e-14,1.50996e-07c-8.33927e-08,-0.552285 0.447715,-1 1,-1c0.552285,-8.33927e-08 1,0.447715 1,1c0,0 0,8.88178e-16 0,8.88178e-16l-2.13092e-09,1.7304e-07c-0.00160883,0.130643 -0.0288153,0.259704 -0.0800801,0.37988l4.35184e-08,-1.0372e-07c-0.0508176,0.121117 -0.121826,0.232729 -0.21,0.33008l1.25661e-08,-1.25338e-08c-0.188284,0.187799 -0.443999,0.292272 -0.70992,0.29004Z" transform="translate(39, 4)"/><path d="M1.00209,2.00982l2.94439e-09,3.62572e-11c-0.130643,-0.00160881 -0.259704,-0.0288152 -0.37988,-0.08008l-4.86485e-09,-2.02852e-09c-0.121247,-0.0505568 -0.23291,-0.121562 -0.33012,-0.20992l-1.88532e-07,-2.14016e-07c-0.0878763,-0.0997545 -0.162094,-0.210754 -0.2207,-0.33008l-3.48702e-08,-8.80885e-08c-0.0478413,-0.120856 -0.0713902,-0.249957 -0.0693001,-0.37992l3.23973e-09,-5.99491e-07c0.00143337,-0.26522 0.105343,-0.519618 0.29,-0.71l1.29642e-07,-1.17597e-07c0.0473733,-0.042972 0.0972651,-0.0830831 0.14941,-0.12012l5.06535e-09,-3.45e-09c0.0558462,-0.0380367 0.116629,-0.068263 0.18066,-0.08984l1.09523e-08,-5.58087e-09c0.0566182,-0.0288504 0.117158,-0.0492504 0.17969,-0.06055l-3.89944e-08,8.91227e-09c0.12823,-0.0293073 0.26142,-0.0293073 0.38965,-1.78245e-08l1.01312e-08,1.49233e-09c0.0663293,0.00977029 0.130638,0.0302183 0.19043,0.06055l-3.25474e-08,-1.10291e-08c0.0637214,0.0215928 0.124181,0.051821 0.17969,0.0898399l-6.44087e-08,-4.54207e-08c0.0524953,0.0370195 0.102741,0.0771306 0.15047,0.120121l0.12012,0.14941l1.9932e-08,2.96769e-08c0.037657,0.0560677 0.0678572,0.116798 0.08984,0.18066l-6.39693e-09,-1.24647e-08c0.0289832,0.0564752 0.0490764,0.117085 0.05957,0.17969l2.30798e-08,1.25761e-07c0.0121302,0.0660972 0.0189752,0.133056 0.02047,0.20024l-2.13092e-09,1.7304e-07c-0.00160883,0.130643 -0.0288153,0.259704 -0.0800801,0.37988l2.43427e-08,-6.71639e-08c-0.0910307,0.251162 -0.288838,0.448969 -0.54,0.54l4.10248e-08,-1.75054e-08c-0.120185,0.0512835 -0.24926,0.0785036 -0.37992,0.0801198Z" transform="translate(38.9979, 7.99018)"/><path d="M1.00209,2.07612l3.88344e-08,-3.84585e-10c-0.266014,0.0026344 -0.521899,-0.101882 -0.71,-0.29l-1.88532e-07,-2.14016e-07c-0.0878763,-0.0997545 -0.162094,-0.210754 -0.2207,-0.33008l-5.39254e-08,-1.36225e-07c-0.0478413,-0.120856 -0.0713902,-0.249957 -0.0693,-0.37992l-8.65237e-09,6.61477e-07c0.00346375,-0.264812 0.107078,-0.518488 0.29,-0.71l1.63193e-08,-1.54456e-08c0.0955837,-0.0904659 0.207635,-0.161754 0.33008,-0.21l4.91722e-08,-2.06131e-08c0.372421,-0.156119 0.802168,-0.0733182 1.08992,0.21l3.32205e-08,3.48997e-08c0.182536,0.191762 0.286085,0.44528 0.29,0.71l1.03322e-08,7.71308e-07c0.0017416,0.130016 -0.0221501,0.2591 -0.0703103,0.37988l9.40273e-08,-1.94097e-07c-0.0578939,0.119508 -0.131804,0.23057 -0.219689,0.330119l-1.67448e-08,1.51663e-08c-0.0973508,0.0881737 -0.208963,0.159182 -0.33008,0.21l-7.53617e-08,3.21292e-08c-0.120194,0.0512426 -0.249269,0.0784221 -0.379921,0.0800004Z" transform="translate(42.9979, 3.92388)"/><path d="M1,2.04744l2.94439e-09,3.62572e-11c-0.130643,-0.00160881 -0.259704,-0.0288152 -0.37988,-0.08008l-4.86485e-09,-2.02852e-09c-0.121247,-0.0505568 -0.23291,-0.121562 -0.33012,-0.20992l-9.56605e-08,-1.05617e-07c-0.0881737,-0.0973508 -0.159182,-0.208963 -0.21,-0.33008l2.5978e-08,6.09337e-08c-0.0512425,-0.120194 -0.0784219,-0.249268 -0.0800002,-0.37992l-9.2823e-09,3.7432e-07c0.00166436,-0.0671175 0.00819144,-0.134026 0.0195299,-0.2002l-2.57419e-08,1.42457e-07c0.0112996,-0.0625323 0.0316995,-0.123072 0.06055,-0.17969l-9.39597e-09,2.78833e-08c0.021577,-0.0640314 0.0518033,-0.124814 0.08984,-0.18066l-1.42168e-07,2.00286e-07c0.0370226,-0.0521575 0.0771202,-0.102063 0.12008,-0.14945l6.99482e-08,-6.89485e-08c0.239455,-0.236033 0.58066,-0.337443 0.91016,-0.27051l2.31258e-08,4.23682e-09c0.0624937,0.0114493 0.123012,0.0318421 0.17969,0.06055l-3.25474e-08,-1.10291e-08c0.0637214,0.0215928 0.124181,0.051821 0.17969,0.0898399l-3.42126e-08,-2.31667e-08c0.0512127,0.0346782 0.098392,0.0749677 0.140661,0.120119l2.494e-08,2.392e-08c0.293721,0.281708 0.381348,0.716328 0.21973,1.08984l4.38933e-09,-1.06796e-08c-0.0507465,0.123471 -0.125424,0.235679 -0.21973,0.33016l2.14098e-08,-2.05587e-08c-0.188688,0.181187 -0.438659,0.284717 -0.7002,0.29Z" transform="translate(43, 7.95256)"/><path d="M8,16.0003h-6l9.24672e-08,1.2043e-10c-1.10397,-0.00143782 -1.99856,-0.896027 -2,-2v-12l-2.74023e-08,2.11245e-05c0.00142623,-1.10397 0.896006,-1.99857 1.99998,-2.00002h6.00002l3.13605e-08,-1.82041e-11c0.551964,-0.000320401 0.99968,0.446875 1,0.99884c2.24515e-07,0.000386779 2.24503e-07,0.000773558 -3.641e-11,0.00116034v14l-1.03149e-08,-1.75047e-05c0.000330086,0.551964 -0.446858,0.999687 -0.998822,1.00002c-0.000386779,2.31302e-07 -0.000773558,2.38076e-07 -0.00116034,2.03231e-08Zm-6,-14v12h5v-12Z" transform="translate(-2.72819e-08, 19.9997)"/><path d="M5.00033,26.0003h-4l4.07564e-10,-2.34479e-13c-0.551964,0.000320418 -0.99968,-0.446875 -1,-0.99884c-2.24527e-07,-0.000386779 -2.24527e-07,-0.000773558 -4.73399e-13,-0.00116034v-24l1.03656e-08,1.75895e-05c-0.000330133,-0.551964 0.446858,-0.999687 0.998822,-1.00002c0.000386779,-2.31334e-07 0.000773558,-2.38142e-07 0.00116034,-2.04215e-08h4l3.13605e-08,-1.82041e-11c0.551964,-0.000320401 0.99968,0.446875 1,0.99884c2.24515e-07,0.000386779 2.24503e-07,0.000773558 -3.641e-11,0.00116034v24l-1.03207e-08,-1.75148e-05c0.000330086,0.551964 -0.446858,0.999687 -0.998822,1.00002c-0.000380912,2.27793e-07 -0.000761825,2.37819e-07 -0.00114274,3.00765e-08Zm-3,-2h2v-22h-2Z" transform="translate(6.99967, 14.9997)"/><path d="M4,2h-3h-4.37114e-08c-0.552285,-2.41411e-08 -1,-0.447715 -1,-1c2.41411e-08,-0.552285 0.447715,-1 1,-1h3l3.33511e-08,1.77636e-15c0.552285,4.16963e-08 1,0.447715 1,1c-4.16963e-08,0.552285 -0.447715,1 -1,1Z" transform="translate(11, 15)"/><use transform="translate(11, 19)" xlink:href="#a"/><use transform="translate(11, 23)" xlink:href="#a"/><use transform="translate(11, 27)" xlink:href="#a"/><use transform="translate(11, 31)" xlink:href="#a"/><use transform="translate(11, 35)" xlink:href="#a"/><use transform="translate(11, 39)" xlink:href="#a"/><path d="M1,7l4.07567e-10,-2.34479e-13c-0.551964,0.000320418 -0.99968,-0.446875 -1,-0.99884c-2.24527e-07,-0.000386779 -2.24527e-07,-0.000773558 -4.68958e-13,-0.00116034v-5l1.42109e-14,1.50996e-07c-8.33927e-08,-0.552285 0.447715,-1 1,-1c0.552285,-8.33927e-08 1,0.447715 1,1c0,0 0,7.10543e-15 0,7.10543e-15v5l-1.02272e-08,-1.73537e-05c0.000330086,0.551964 -0.446858,0.999687 -0.998822,1.00002c-0.000386829,2.31332e-07 -0.000773659,2.38078e-07 -0.00116049,2.02381e-08Z" transform="translate(37, 45)"/><use transform="translate(20, 50)" xlink:href="#c"/><use transform="translate(24, 50)" xlink:href="#c"/><use transform="translate(48, 19)" xlink:href="#b"/><use transform="translate(48, 24)" xlink:href="#b"/></g></svg>
